<svg width="751" height="500" viewBox="0 0 751 500" fill="none" xmlns="http://www.w3.org/2000/svg">
<path opacity="0.18" d="M617.848 322.385C621.192 293.085 638.163 262.085 620.812 235.595C616.253 228.675 609.732 222.745 602.424 217.235C592.773 209.965 581.788 203.395 572.172 196.075C555.165 183.095 545.442 167.575 532.339 153.345C526.912 147.335 520.736 141.835 513.917 136.925C511.203 135.005 508.466 133.105 505.681 131.245C482.902 116.085 457.28 103.075 428.122 95.5152C386.79 84.8452 337.65 86.5552 302.745 106.065C290.177 113.085 280.002 121.975 270.183 131.245C262.257 138.695 254.617 146.345 246.143 153.335C238.574 159.615 230.374 165.375 220.794 169.985C207.156 176.565 191.47 180.435 176.998 185.955C167.716 189.495 158.885 193.825 150.649 198.875C139.593 205.625 129.704 213.625 121.266 222.665C102.974 242.255 92.6201 265.885 93.3222 289.675C93.4293 293.395 93.7864 297.145 93.9292 300.875C94.2029 304.985 93.9292 309.105 93.0842 313.155C91.549 319.795 87.7882 326.035 83.9085 332.225C78.6125 340.645 73.0786 348.975 72.543 358.125C71.6266 373.855 85.4913 387.335 100.867 398.855C103.438 400.775 106.056 402.655 108.639 404.475C112.757 407.385 116.993 410.285 121.266 413.155L122.087 413.705C124.372 415.235 126.669 416.755 129.002 418.265C134.845 422.045 140.831 425.735 146.972 429.255C149.721 430.815 152.458 432.335 155.208 433.815C161.598 437.265 168.192 440.435 174.963 443.325C191.684 450.465 209.548 455.685 228.768 457.755C281.406 463.285 333.771 443.625 386.861 446.225C421.695 447.925 454.185 459.095 487.948 465.595C521.712 472.095 560.914 473.135 588.131 457.065C613.219 442.285 621.442 416.735 621.514 393.115C621.585 369.495 615.111 345.925 617.813 322.375L617.848 322.385Z" fill="#235789"/>
<path d="M585.61 164.59V368.43C585.64 380.87 575.58 390.98 563.14 391.02H143.18C130.71 391.02 120.59 380.93 120.59 368.46V164.59C120.61 152.12 130.71 142.01 143.18 142H563.03C574.38 142 583.96 150.43 585.42 161.68C585.55 162.65 585.61 163.62 585.61 164.59Z" fill="#235789"/>
<path d="M585.61 164.59V368.43C585.64 380.87 575.58 390.98 563.14 391.02H143.18C130.71 391.02 120.59 380.93 120.59 368.46V164.59C120.61 152.12 130.71 142.01 143.18 142H563.03C574.38 142 583.96 150.43 585.42 161.68C585.55 162.65 585.61 163.62 585.61 164.59Z" fill="url(#paint0_linear_2312_2420)"/>
<path d="M584.33 162.44H119.69C121.15 151.18 130.74 142.76 142.09 142.76H561.94C573.29 142.76 582.88 151.18 584.34 162.44H584.33Z" fill="url(#paint1_linear_2312_2420)"/>
<path d="M422.97 321.26H265.8C262.591 321.26 259.99 323.861 259.99 327.07V336.63C259.99 339.839 262.591 342.44 265.8 342.44H422.97C426.179 342.44 428.78 339.839 428.78 336.63V327.07C428.78 323.861 426.179 321.26 422.97 321.26Z" fill="white" stroke="#A0A0A0" stroke-width="0.65" stroke-miterlimit="10"/>
<path d="M440.18 330.87V328.43H442.1V326.86H440.18V325.69H442.1V324.12H438.25V330.87C435.64 331.4 433.96 333.95 434.49 336.56C435.02 339.17 437.57 340.85 440.18 340.32C442.79 339.79 444.47 337.24 443.94 334.63C443.55 332.74 442.07 331.26 440.18 330.87ZM439.22 338.94C437.37 338.94 435.86 337.45 435.86 335.59C435.86 333.73 437.35 332.23 439.21 332.23C441.07 332.23 442.57 333.72 442.57 335.58C442.57 337.43 441.07 338.93 439.22 338.94Z" fill="#235789"/>
<path d="M273.75 336.75C276.296 336.75 278.36 334.686 278.36 332.14C278.36 329.594 276.296 327.53 273.75 327.53C271.204 327.53 269.14 329.594 269.14 332.14C269.14 334.686 271.204 336.75 273.75 336.75Z" fill="#235789"/>
<path d="M288.11 336.75C290.656 336.75 292.72 334.686 292.72 332.14C292.72 329.594 290.656 327.53 288.11 327.53C285.564 327.53 283.5 329.594 283.5 332.14C283.5 334.686 285.564 336.75 288.11 336.75Z" fill="#235789"/>
<path d="M302.47 336.75C305.016 336.75 307.08 334.686 307.08 332.14C307.08 329.594 305.016 327.53 302.47 327.53C299.924 327.53 297.86 329.594 297.86 332.14C297.86 334.686 299.924 336.75 302.47 336.75Z" fill="#235789"/>
<path d="M316.83 336.75C319.376 336.75 321.44 334.686 321.44 332.14C321.44 329.594 319.376 327.53 316.83 327.53C314.284 327.53 312.22 329.594 312.22 332.14C312.22 334.686 314.284 336.75 316.83 336.75Z" fill="#235789"/>
<path d="M373.05 208.9H324.92C320.154 208.9 316.29 212.764 316.29 217.53V265.66C316.29 270.426 320.154 274.29 324.92 274.29H373.05C377.816 274.29 381.68 270.426 381.68 265.66V217.53C381.68 212.764 377.816 208.9 373.05 208.9Z" fill="url(#paint2_linear_2312_2420)"/>
<path d="M373.31 208.9H328.65C324.033 208.9 320.29 212.643 320.29 217.26V265.93C320.29 270.547 324.033 274.29 328.65 274.29H373.31C377.927 274.29 381.67 270.547 381.67 265.93V217.26C381.67 212.643 377.927 208.9 373.31 208.9Z" fill="#235789"/>
<path d="M384.2 241.8L380.83 245.01L379.36 246.39C377.02 243.59 373.47 242.08 369.82 242.35C369.03 242.44 368.24 242.31 367.52 241.98C365.09 240.6 368.9 235.9 368.9 235.9C369.74 235.89 370.58 235.92 371.41 236.01H371.63L372.3 236.09C375.51 236.54 380.65 238.06 384.2 241.81V241.8Z" fill="white"/>
<path d="M380.69 244.71L380.82 245.01L379.35 246.39C377.01 243.59 373.46 242.08 369.81 242.35C369.02 242.44 368.23 242.31 367.51 241.98L368.89 235.9C368.89 235.9 370.25 235.9 371.4 236.01H371.62C371.84 236.02 372.07 236.05 372.29 236.09C372.29 236.09 373.09 239.51 372.5 240.95C372.5 240.97 378.13 241.91 380.69 244.72V244.71Z" fill="url(#paint3_linear_2312_2420)"/>
<path d="M350.12 222.68H347.85C346.022 222.68 344.54 224.162 344.54 225.99V257.19C344.54 259.018 346.022 260.5 347.85 260.5H350.12C351.948 260.5 353.43 259.018 353.43 257.19V225.99C353.43 224.162 351.948 222.68 350.12 222.68Z" fill="url(#paint4_linear_2312_2420)"/>
<path d="M369.81 241.08C369.73 249.32 363.04 255.96 354.79 255.97H351.55C350.1 255.97 348.94 254.79 348.94 253.34C348.94 252.35 349.5 251.45 350.38 251.01C350.74 250.83 351.14 250.74 351.55 250.74H352.77C358.18 250.74 362.56 246.36 362.56 240.95V240.74C362.38 235.36 357.95 231.11 352.57 231.15H351.1C349.92 231.15 348.96 230.19 348.96 229.01V228.1C348.96 226.92 349.92 225.96 351.1 225.96H354.54C362.84 225.96 369.86 232.76 369.8 241.09L369.81 241.08Z" fill="white"/>
<path d="M365.8 241.68C365.74 248.84 359.93 254.61 352.77 254.63H349.95C349.7 254.63 349.45 254.59 349.22 254.51C348.58 253.22 349.1 251.66 350.39 251.02C350.75 250.84 351.15 250.75 351.56 250.75H352.77C358.18 250.75 362.56 246.37 362.56 240.96V240.75C362.38 235.37 357.95 231.12 352.57 231.16H351.1C349.92 231.16 348.96 230.2 348.96 229.02V228.62C349.15 228.56 349.35 228.53 349.55 228.52H352.54C359.82 228.52 365.75 234.4 365.8 241.68Z" fill="url(#paint5_linear_2312_2420)"/>
<path d="M362.08 237.98C362.08 237.98 363.06 240.61 361.84 244.63C361.84 244.63 357.2 249.41 361.16 257L364.43 260.5L360.62 264.25C355.79 260.52 353.35 254.48 354.24 248.45C355.11 241.98 362.08 237.98 362.08 237.98Z" fill="white"/>
<path d="M357.37 267.27L387.52 238.66L412.82 260.5L381.67 290.37L357.37 267.27Z" fill="#235789"/>
<path d="M357.37 267.27L359.38 278.61L381.67 300V290.37L357.37 267.27Z" fill="#235789"/>
<path d="M412.82 260.5V270.91L381.67 300V290.37L412.82 260.5Z" fill="#235789"/>
<path d="M357.37 267.27L359.38 278.61L381.67 300V290.37L357.37 267.27Z" fill="url(#paint6_linear_2312_2420)"/>
<path d="M412.82 260.5V270.91L381.67 300V290.37L412.82 260.5Z" fill="url(#paint7_linear_2312_2420)"/>
<path d="M362.93 272.56L393.37 243.7L396.18 246.13L365.8 275.28L362.93 272.56Z" fill="url(#paint8_linear_2312_2420)"/>
<path d="M371.92 280.91L403.08 252.06L405.89 254.48L374.79 283.63L371.92 280.91Z" fill="url(#paint9_linear_2312_2420)"/>
<path d="M439.299 84.1784L442.779 90.2284L467.169 79.3684L469.659 83.2184C469.659 83.2184 444.329 108.428 442.819 108.078C441.309 107.728 431.379 90.1084 431.379 90.1084L439.309 84.1684L439.299 84.1784Z" fill="#FFB4A3"/>
<path d="M439.299 84.1784L442.779 90.2284L467.169 79.3684L469.659 83.2184C469.659 83.2184 444.329 108.428 442.819 108.078C441.309 107.728 431.379 90.1084 431.379 90.1084L439.309 84.1684L439.299 84.1784Z" fill="url(#paint10_linear_2312_2420)"/>
<path d="M430.319 61.0484L441.279 82.5184L431.719 90.9284L430.319 61.0484Z" fill="#235789"/>
<path opacity="0.69" d="M430.319 61.0484L441.279 82.5184L431.719 90.9284L430.319 61.0484Z" fill="url(#paint11_linear_2312_2420)"/>
<path d="M451.629 101.508L457.549 61.0484L481.199 60.7284L473.419 101.818L451.629 101.508Z" fill="#235789"/>
<path d="M395.139 76.7184V123.128H433.419V73.5684C433.419 73.5684 433.809 57.5384 425.409 58.2484C417.009 58.9584 398.719 55.1784 395.139 76.7184Z" fill="#235789"/>
<path opacity="0.69" d="M395.139 76.7184V123.128H433.419V73.5684C433.419 73.5684 433.809 57.5384 425.409 58.2484C417.009 58.9584 398.719 55.1784 395.139 76.7184Z" fill="url(#paint12_linear_2312_2420)"/>
<path d="M433.419 123.058C433.419 123.058 458.279 123.838 465.329 135.488C472.369 147.138 482.139 176.578 482.139 176.578L473.259 180.078L457.389 160.008L433.419 123.058Z" fill="white"/>
<path d="M433.419 123.058C433.419 123.058 458.279 123.838 465.329 135.488C472.369 147.138 482.139 176.578 482.139 176.578L473.259 180.078L457.389 160.008L433.419 123.058Z" fill="url(#paint13_linear_2312_2420)"/>
<path d="M395.139 123.058C395.139 123.058 391.709 140.178 400.739 142.948C409.769 145.718 437.459 148.548 437.459 148.548L451.159 193.988L462.519 188.848C462.519 188.848 458.319 139.518 452.719 133.318C447.119 127.128 433.419 123.048 433.419 123.048H395.139V123.058Z" fill="white"/>
<path d="M414.599 44.2284C414.999 41.8584 415.689 39.5484 416.669 37.3484C418.699 33.5384 422.579 31.0684 426.899 30.8484C427.409 30.8184 427.929 30.8484 428.429 30.9584C428.969 31.0984 429.489 31.3284 429.949 31.6284C432.279 33.2484 433.869 35.7484 434.339 38.5484C434.789 41.3184 434.859 44.1384 434.549 46.9384C434.339 49.9884 433.789 53.5684 431.069 54.9484C429.179 55.8984 426.929 55.4084 424.879 54.7784C424.469 54.5884 423.989 54.5884 423.579 54.7784C423.289 55.0384 423.119 55.3984 423.099 55.7784C422.639 58.7484 423.589 61.8284 422.909 64.7484C422.819 65.4284 422.439 66.0384 421.859 66.4084C421.319 66.5984 420.739 66.5984 420.199 66.4084C417.529 65.7184 415.059 64.3784 413.019 62.5184C412.189 61.7484 410.009 60.4184 409.709 59.3184C409.409 58.2184 410.969 55.8584 411.369 54.7884C412.699 51.3484 413.779 47.8184 414.599 44.2184V44.2284Z" fill="#FFB4A3"/>
<path opacity="0.69" d="M395.539 76.7584L407.369 99.1384L419.979 89.8084C419.979 89.8084 410.629 66.4984 408.809 65.5584C406.989 64.6184 402.499 61.8284 400.409 64.8584C398.309 67.8884 395.159 72.7884 395.549 76.7584H395.539Z" fill="url(#paint14_linear_2312_2420)"/>
<path d="M410.239 97.6984C410.239 97.6984 415.379 106.818 417.699 107.038C420.019 107.258 453.189 92.7884 453.189 92.7884L458.329 91.1284C458.329 91.1284 459.499 85.5284 459.729 84.3584C459.959 83.1884 461.829 79.2284 459.259 78.7584C456.689 78.2884 452.739 81.5884 452.739 81.5884L450.869 86.2584L422.859 94.8984L419.979 89.8384L410.249 97.6984H410.239Z" fill="#FFB4A3"/>
<path d="M440.099 31.7884C441.269 29.1184 440.209 25.3984 437.429 24.5084C435.139 23.7584 432.709 25.0684 430.309 25.1084C428.259 25.1084 426.309 24.2784 424.279 24.0384C419.309 23.6084 414.759 26.8284 413.509 31.6584C413.399 32.3784 413.199 33.0884 412.909 33.7584C412.079 35.2584 409.959 35.8784 409.549 37.5484C409.429 38.3684 409.549 39.2084 409.879 39.9584L412.519 47.8084C412.819 48.6884 413.489 49.7684 414.369 49.4684C414.859 49.2984 415.089 48.7584 415.269 48.2584L417.039 43.3484C418.629 43.2084 418.279 46.9084 419.869 46.6584C420.899 46.4884 420.699 44.9984 420.439 43.9584C419.949 41.0884 421.879 38.3784 424.749 37.8884C424.749 37.8884 424.769 37.8884 424.779 37.8884C425.549 37.8984 426.319 37.7784 427.039 37.5184C427.489 37.1784 427.959 36.8684 428.439 36.5884C430.389 35.8584 432.449 37.4884 434.669 36.6484C437.039 35.7984 438.999 34.0684 440.119 31.8084L440.099 31.7884Z" fill="#231F20"/>
<path d="M458.789 190.368L460.419 194.808L473.029 194.578L457.159 201.808L454.129 192.008L458.789 190.368Z" fill="#235789"/>
<path d="M457.739 190.948L459.379 195.388L471.979 195.158L456.109 202.388L453.069 192.588L457.739 190.948Z" fill="url(#paint15_linear_2312_2420)"/>
<path d="M480.969 177.058L482.599 181.498L495.209 181.268L479.339 188.498L476.299 178.698L480.969 177.058Z" fill="#235789"/>
<path d="M479.919 177.638L481.549 182.088L494.159 181.848L478.279 189.088L475.249 179.278L479.919 177.638Z" fill="url(#paint16_linear_2312_2420)"/>
<path d="M648.199 443.288C640.242 435.931 624.104 430.888 605.487 430.888C586.869 430.888 570.738 435.918 562.78 443.275H557.506V453.672C557.506 466.263 578.985 476.462 605.487 476.462C631.988 476.462 653.473 466.263 653.473 453.672V443.288H648.199Z" fill="#235789"/>
<path opacity="0.47" d="M648.199 443.288C640.242 435.931 624.104 430.888 605.487 430.888C586.869 430.888 570.738 435.918 562.78 443.275H557.506V453.672C557.506 466.263 578.985 476.462 605.487 476.462C631.988 476.462 653.473 466.263 653.473 453.672V443.288H648.199Z" fill="#1B4075"/>
<path d="M605.487 466.079C631.989 466.079 653.473 455.875 653.473 443.288C653.473 430.702 631.989 420.498 605.487 420.498C578.984 420.498 557.5 430.702 557.5 443.288C557.5 455.875 578.984 466.079 605.487 466.079Z" fill="#235789"/>
<path d="M605.032 449.492C613.756 449.492 620.827 446.284 620.827 442.326C620.827 438.368 613.756 435.16 605.032 435.16C596.308 435.16 589.236 438.368 589.236 442.326C589.236 446.284 596.308 449.492 605.032 449.492Z" fill="#B5DDFA"/>
<path d="M605.381 463.85C582.789 463.85 564.409 454.621 564.409 443.302C564.409 431.982 582.789 422.759 605.381 422.759C627.974 422.759 646.347 431.989 646.347 443.302C646.347 454.614 627.967 463.85 605.381 463.85ZM605.381 423.208C583.026 423.208 564.837 432.226 564.837 443.302C564.837 454.377 583.026 463.396 605.381 463.396C627.736 463.396 645.918 454.384 645.918 443.302C645.918 432.22 627.73 423.208 605.381 423.208Z" fill="#B5DDFA"/>
<path d="M584.503 456.599C575.932 453.586 570.408 448.773 570.408 443.361C570.408 438.674 574.581 434.435 581.259 431.422L580.995 431.158C574.251 434.244 570.045 438.575 570.045 443.368C570.045 448.918 575.688 453.856 584.377 456.935C584.41 456.823 584.456 456.711 584.503 456.599Z" fill="#B5DDFA"/>
<path d="M629.826 455.155C623.517 458.075 614.875 459.895 605.381 459.895C604.287 459.895 603.206 459.862 602.144 459.816C602.144 459.934 602.144 460.06 602.144 460.185C603.206 460.231 604.274 460.264 605.368 460.264C615.02 460.264 623.781 458.398 630.169 455.392L629.826 455.155Z" fill="#B5DDFA"/>
<path d="M640.348 443.368C640.303 445.278 639.652 447.125 638.489 448.642L638.818 448.793C640.012 447.223 640.677 445.314 640.717 443.341C640.717 435.397 629.167 428.726 613.688 426.939L613.589 427.295C628.916 429.068 640.348 435.602 640.348 443.368Z" fill="#B5DDFA"/>
<path d="M605.381 454.219C591.676 454.219 580.528 448.885 580.528 442.352C580.528 435.819 591.676 430.486 605.381 430.486C619.087 430.486 630.228 435.819 630.228 442.352C630.228 448.885 619.081 454.219 605.381 454.219ZM605.381 430.941C591.959 430.941 581.035 436.05 581.035 442.326C581.035 448.602 591.959 453.711 605.381 453.711C618.804 453.711 629.721 448.602 629.721 442.326C629.721 436.05 618.83 430.941 605.381 430.941Z" fill="#B5DDFA"/>
<path d="M638.634 449.716C639.784 449.716 640.717 449.22 640.717 448.609C640.717 447.997 639.784 447.501 638.634 447.501C637.483 447.501 636.551 447.997 636.551 448.609C636.551 449.22 637.483 449.716 638.634 449.716Z" fill="#1B4075"/>
<path d="M602.197 460.851C603.348 460.851 604.28 460.355 604.28 459.743C604.28 459.132 603.348 458.636 602.197 458.636C601.047 458.636 600.114 459.132 600.114 459.743C600.114 460.355 601.047 460.851 602.197 460.851Z" fill="#1B4075"/>
<path d="M584.852 457.41C585.708 457.41 586.402 457.052 586.402 456.612C586.402 456.171 585.708 455.814 584.852 455.814C583.997 455.814 583.303 456.171 583.303 456.612C583.303 457.052 583.997 457.41 584.852 457.41Z" fill="#1B4075"/>
<path d="M629.866 455.926C630.616 455.926 631.224 455.581 631.224 455.155C631.224 454.729 630.616 454.384 629.866 454.384C629.116 454.384 628.508 454.729 628.508 455.155C628.508 455.581 629.116 455.926 629.866 455.926Z" fill="#1B4075"/>
<path opacity="0.38" d="M640.374 296.118C612.897 305.169 583.481 301.794 557.52 290V443.605C557.52 456.197 578.998 466.395 605.5 466.395C632.002 466.395 653.487 456.197 653.487 443.605V290.804C649.238 292.862 644.857 294.637 640.374 296.118Z" fill="url(#paint17_linear_2312_2420)"/>
<path d="M614.73 344.816C614.761 344.879 614.982 345.634 615.139 345.477C615.296 345.319 616.115 345.666 616.115 345.666L618.444 342.707L618.129 341.731H616.052" fill="#235789"/>
<path d="M625.967 332.067L626.188 331.311L628.643 329.989V325.834C628.643 325.74 626.282 327.219 626.282 327.219L626.156 326.999C626.03 326.369 625.779 325.74 625.432 325.205L627.164 322.025L624.992 320.357L623.355 323.631C622.757 323.505 622.159 323.505 621.56 323.662V320.514L618.444 322.246V325.519C617.846 326.118 617.279 326.747 616.776 327.44L614.887 326.243L612.746 330.304L614.446 331.658L614.289 332.35C614.069 333.074 613.911 333.798 613.754 334.554L611.236 335.939V340.063L613.628 338.646C613.722 339.401 614.006 340.125 614.415 340.755L612.621 343.777L614.887 345.477L616.492 342.36H618.507V345.477L621.498 343.651V340.566C622.19 339.905 622.788 339.15 623.292 338.331L625.086 339.559L627.258 335.435L625.464 334.113L625.653 333.484C625.716 333.011 625.842 332.539 625.967 332.067Z" fill="#235789"/>
<path d="M631.634 327.534L628.864 325.866L628.171 326.904L629.242 329.139" fill="#235789"/>
<path d="M628.014 341.322L625.967 340.472V339.244" fill="#235789"/>
<path d="M621.435 347.208L618.444 345.477L619.2 343.21L621.907 343.997L621.435 347.208Z" fill="#235789"/>
<path d="M624.96 320.325L627.982 322.057L626.314 325.362L624.52 325.394L624.11 322.057L624.96 320.325Z" fill="#235789"/>
<path d="M624.402 335.159C624.872 333.962 624.69 332.77 623.994 332.496C623.298 332.223 622.353 332.972 621.882 334.169C621.412 335.367 621.594 336.559 622.29 336.832C622.986 337.106 623.931 336.357 624.402 335.159Z" fill="#235789"/>
<path d="M618.381 322.246L621.403 323.977L624.52 322.246L621.529 320.514L618.381 322.246Z" fill="#235789"/>
<path d="M617.846 327.975L614.856 326.243L612.715 330.304L615.706 332.035L617.846 327.975Z" fill="#235789"/>
<path d="M612.589 343.745L615.611 345.477L617.877 347.208L614.856 345.477L612.589 343.745Z" fill="#235789"/>
<path opacity="0.44" d="M614.73 344.816C614.761 344.879 614.982 345.634 615.139 345.477C615.296 345.319 616.115 345.666 616.115 345.666L618.444 342.707L618.129 341.731H616.052" fill="#053855"/>
<path d="M625.967 332.067L626.188 331.311L628.643 329.989V325.834C628.643 325.74 626.282 327.219 626.282 327.219L626.156 326.999C626.03 326.369 625.779 325.74 625.432 325.205L627.164 322.025L624.992 320.357L623.355 323.631C622.757 323.505 622.159 323.505 621.56 323.662V320.514L618.444 322.246V325.519C617.846 326.118 617.279 326.747 616.776 327.44L614.887 326.243L612.746 330.304L614.446 331.658L614.289 332.35C614.069 333.074 613.911 333.798 613.754 334.554L611.236 335.939V340.063L613.628 338.646C613.722 339.401 614.006 340.125 614.415 340.755L612.621 343.777L614.887 345.477L616.492 342.36H618.507V345.477L621.498 343.651V340.566C622.19 339.905 622.788 339.15 623.292 338.331L625.086 339.559L627.258 335.435L625.464 334.113L625.653 333.484C625.716 333.011 625.842 332.539 625.967 332.067Z" fill="#235789"/>
<path opacity="0.44" d="M631.634 327.534L628.864 325.866L628.171 326.904L629.242 329.139" fill="#053855"/>
<path d="M628.014 341.322L625.967 340.472V339.244" fill="#235789"/>
<path d="M621.435 347.208L618.444 345.477L619.2 343.21L621.907 343.997L621.435 347.208Z" fill="#235789"/>
<path d="M624.96 320.325L627.982 322.057L626.314 325.362L624.52 325.394L624.11 322.057L624.96 320.325Z" fill="#235789"/>
<path d="M624.402 335.159C624.872 333.962 624.69 332.77 623.994 332.496C623.298 332.223 622.353 332.972 621.882 334.169C621.412 335.367 621.594 336.559 622.29 336.832C622.986 337.106 623.931 336.357 624.402 335.159Z" fill="#235789"/>
<path d="M617.846 327.975L614.856 326.243L612.715 330.304L615.706 332.035L617.846 327.975Z" fill="#235789"/>
<path d="M612.589 343.745L615.611 345.477L617.877 347.208L614.856 345.477L612.589 343.745Z" fill="#235789"/>
<path opacity="0.44" d="M625.967 332.067L626.188 331.311L628.643 329.989V325.834C628.643 325.74 626.282 327.219 626.282 327.219L626.156 326.999C626.03 326.369 625.779 325.74 625.432 325.205L627.164 322.025L624.992 320.357L623.355 323.631C622.757 323.505 622.159 323.505 621.56 323.662V320.514L618.444 322.246V325.519C617.846 326.118 617.279 326.747 616.776 327.44L614.887 326.243L612.746 330.304L614.446 331.658L614.289 332.35C614.069 333.074 613.911 333.798 613.754 334.554L611.236 335.939V340.063L613.628 338.646C613.722 339.401 614.006 340.125 614.415 340.755L612.621 343.777L614.887 345.477L616.492 342.36H618.507V345.477L621.498 343.651V340.566C622.19 339.905 622.788 339.15 623.292 338.331L625.086 339.559L627.258 335.435L625.464 334.113L625.653 333.484C625.716 333.011 625.842 332.539 625.967 332.067Z" fill="#053855"/>
<path opacity="0.1" d="M628.014 341.322L625.967 340.472V339.244" fill="#053855"/>
<path opacity="0.1" d="M621.435 347.208L618.444 345.477L619.2 343.21L621.907 343.997L621.435 347.208Z" fill="#053855"/>
<path opacity="0.1" d="M624.402 335.159C624.872 333.962 624.69 332.77 623.994 332.496C623.298 332.223 622.353 332.972 621.882 334.169C621.412 335.367 621.594 336.559 622.29 336.832C622.986 337.106 623.931 336.357 624.402 335.159Z" fill="#053855"/>
<path opacity="0.1" d="M617.846 327.975L614.856 326.243L612.715 330.304L615.706 332.035L617.846 327.975Z" fill="#053855"/>
<path opacity="0.1" d="M612.589 343.745L615.611 345.477L617.877 347.208L614.856 345.477L612.589 343.745Z" fill="#053855"/>
<path opacity="0.1" d="M628.014 341.322L625.967 340.472V339.244" fill="#053855"/>
<path opacity="0.44" d="M621.435 347.208L618.444 345.477L619.2 343.21L621.907 343.997L621.435 347.208Z" fill="#053855"/>
<path d="M628.958 333.798L629.178 333.043L631.634 331.721V327.565C631.634 327.471 629.273 328.951 629.273 328.951L629.147 328.73C629.021 328.101 628.769 327.471 628.423 326.936L630.154 323.757L627.982 322.088L626.345 325.362C625.747 325.236 625.149 325.236 624.551 325.393V322.246L621.434 323.977V327.251C620.805 327.849 620.27 328.478 619.766 329.171L617.877 327.975L615.737 332.035L617.437 333.389L617.279 334.05C617.059 334.774 616.87 335.498 616.744 336.254L614.226 337.639V341.794L616.618 340.377C616.713 341.133 616.996 341.857 617.405 342.518L615.642 345.54L617.909 347.24L619.514 344.123H621.497V347.24L624.488 345.414V342.329C625.18 341.668 625.779 340.912 626.282 340.094L628.076 341.322L630.248 337.198L628.454 335.876L628.643 335.246C628.706 334.743 628.832 334.27 628.958 333.798Z" fill="#235789"/>
<path opacity="0.44" d="M624.402 335.159C624.872 333.962 624.69 332.77 623.994 332.496C623.298 332.223 622.353 332.972 621.882 334.169C621.412 335.367 621.594 336.559 622.29 336.832C622.986 337.106 623.931 336.357 624.402 335.159Z" fill="#053855"/>
<path opacity="0.44" d="M612.589 343.745L615.611 345.477L617.877 347.208L614.856 345.477L612.589 343.745Z" fill="#053855"/>
<path d="M618.381 322.246L621.403 323.977L624.52 322.246L621.529 320.514L618.381 322.246Z" fill="#235789"/>
<path opacity="0.44" d="M618.381 322.246L621.403 323.977L624.52 322.246L621.529 320.514L618.381 322.246Z" fill="#053855"/>
<path d="M611.236 335.876L614.226 337.607V341.762L611.236 340.031V335.876Z" fill="#235789"/>
<path opacity="0.44" d="M611.236 335.876L614.226 337.607V341.762L611.236 340.031V335.876Z" fill="#053855"/>
<path d="M587.092 393.733C587.154 393.891 587.564 395.433 587.91 395.119C588.256 394.804 589.925 395.528 589.925 395.528L594.646 389.515L594.017 387.564H589.767" fill="#235789"/>
<path d="M609.914 367.827L610.354 366.253L615.328 363.546V355.078C615.328 354.92 610.512 357.911 610.512 357.911L610.291 357.439C610.008 356.148 609.536 354.889 608.843 353.787L612.337 347.303L607.899 343.934L604.594 350.608L604.562 350.639C603.366 350.356 602.107 350.387 600.911 350.702V344.312L594.52 347.806V354.511C593.261 355.707 592.128 357.029 591.121 358.415L587.28 355.959L582.936 364.207L586.368 366.945L586.084 368.33C585.644 369.778 585.297 371.289 585.014 372.769L579.914 375.57V384.007L584.762 381.111C584.982 382.653 585.518 384.133 586.336 385.423L582.685 391.593L587.312 395.087L590.554 388.728H594.583V395.087L600.659 391.373V385.108C602.044 383.755 603.272 382.212 604.31 380.575L607.962 383.062L612.369 374.657L608.717 371.95L609.064 370.691C609.41 369.747 609.693 368.771 609.914 367.827Z" fill="#235789"/>
<path d="M621.466 358.603L615.831 355.204L614.415 357.281L616.618 361.846" fill="#235789"/>
<path d="M614.1 386.651L609.945 384.919V382.401" fill="#235789"/>
<path d="M600.722 398.644L594.615 395.119L596.157 390.491L601.666 392.097L600.722 398.644Z" fill="#235789"/>
<path d="M607.899 343.934L614.006 347.46L610.669 354.133L606.986 354.196L606.136 347.46L607.899 343.934Z" fill="#235789"/>
<path d="M606.744 374.123C607.704 371.68 607.328 369.246 605.904 368.686C604.48 368.127 602.548 369.654 601.588 372.097C600.627 374.54 601.004 376.974 602.427 377.534C603.851 378.093 605.784 376.566 606.744 374.123Z" fill="#235789"/>
<path d="M594.521 347.806L600.627 351.332L606.986 347.806L600.879 344.281L594.521 347.806Z" fill="#235789"/>
<path d="M593.387 359.485L587.281 355.959L582.968 364.207L589.075 367.732L593.387 359.485Z" fill="#235789"/>
<path d="M582.716 391.624L588.823 395.15L593.45 398.644L587.343 395.119L582.716 391.624Z" fill="#235789"/>
<path opacity="0.44" d="M587.092 393.733C587.154 393.891 587.564 395.433 587.91 395.119C588.256 394.804 589.925 395.528 589.925 395.528L594.646 389.515L594.017 387.564H589.767" fill="#053855"/>
<path d="M609.914 367.827L610.354 366.253L615.328 363.546V355.078C615.328 354.92 610.512 357.911 610.512 357.911L610.291 357.439C610.008 356.148 609.536 354.889 608.843 353.787L612.337 347.303L607.899 343.934L604.594 350.608L604.562 350.639C603.366 350.356 602.107 350.387 600.911 350.702V344.312L594.52 347.806V354.511C593.261 355.707 592.128 357.029 591.121 358.415L587.28 355.959L582.936 364.207L586.368 366.945L586.084 368.33C585.644 369.778 585.297 371.289 585.014 372.769L579.914 375.57V384.007L584.762 381.111C584.982 382.653 585.518 384.133 586.336 385.423L582.685 391.593L587.312 395.087L590.554 388.728H594.583V395.087L600.659 391.373V385.108C602.044 383.755 603.272 382.212 604.31 380.575L607.962 383.062L612.369 374.657L608.717 371.95L609.064 370.691C609.41 369.747 609.693 368.771 609.914 367.827Z" fill="#235789"/>
<path opacity="0.44" d="M621.466 358.603L615.831 355.204L614.415 357.281L616.618 361.846" fill="#053855"/>
<path d="M614.1 386.651L609.945 384.919V382.401" fill="#235789"/>
<path d="M600.722 398.644L594.615 395.119L596.157 390.491L601.666 392.097L600.722 398.644Z" fill="#235789"/>
<path d="M607.899 343.934L614.006 347.46L610.669 354.133L606.986 354.196L606.136 347.46L607.899 343.934Z" fill="#235789"/>
<path d="M606.744 374.123C607.704 371.68 607.328 369.246 605.904 368.686C604.48 368.127 602.548 369.654 601.588 372.097C600.627 374.54 601.004 376.974 602.427 377.534C603.851 378.093 605.784 376.566 606.744 374.123Z" fill="#235789"/>
<path d="M593.387 359.485L587.281 355.959L582.968 364.207L589.075 367.732L593.387 359.485Z" fill="#235789"/>
<path d="M582.716 391.624L588.823 395.15L593.45 398.644L587.343 395.119L582.716 391.624Z" fill="#235789"/>
<path opacity="0.44" d="M609.914 367.827L610.354 366.253L615.328 363.546V355.078C615.328 354.92 610.512 357.911 610.512 357.911L610.291 357.439C610.008 356.148 609.536 354.889 608.843 353.787L612.337 347.303L607.899 343.934L604.594 350.608L604.562 350.639C603.366 350.356 602.107 350.387 600.911 350.702V344.312L594.52 347.806V354.511C593.261 355.707 592.128 357.029 591.121 358.415L587.28 355.959L582.936 364.207L586.368 366.945L586.084 368.33C585.644 369.778 585.297 371.289 585.014 372.769L579.914 375.57V384.007L584.762 381.111C584.982 382.653 585.518 384.133 586.336 385.423L582.685 391.593L587.312 395.087L590.554 388.728H594.583V395.087L600.659 391.373V385.108C602.044 383.755 603.272 382.212 604.31 380.575L607.962 383.062L612.369 374.657L608.717 371.95L609.064 370.691C609.41 369.747 609.693 368.771 609.914 367.827Z" fill="#053855"/>
<path opacity="0.1" d="M614.1 386.651L609.945 384.919V382.401" fill="#053855"/>
<path opacity="0.1" d="M600.722 398.644L594.615 395.119L596.157 390.491L601.666 392.097L600.722 398.644Z" fill="#053855"/>
<path opacity="0.1" d="M606.744 374.123C607.704 371.68 607.328 369.246 605.904 368.686C604.48 368.127 602.548 369.654 601.588 372.097C600.627 374.54 601.004 376.974 602.427 377.534C603.851 378.093 605.784 376.566 606.744 374.123Z" fill="#053855"/>
<path opacity="0.1" d="M593.387 359.485L587.281 355.959L582.968 364.207L589.075 367.732L593.387 359.485Z" fill="#053855"/>
<path opacity="0.1" d="M582.716 391.624L588.823 395.15L593.45 398.644L587.343 395.119L582.716 391.624Z" fill="#053855"/>
<path opacity="0.1" d="M614.1 386.651L609.945 384.919V382.401" fill="#053855"/>
<path opacity="0.44" d="M600.722 398.644L594.615 395.119L596.157 390.491L601.666 392.097L600.722 398.644Z" fill="#053855"/>
<path d="M616.052 371.352L616.493 369.778L621.466 367.071V358.603C621.466 358.446 616.65 361.436 616.65 361.436L616.43 360.964C616.146 359.674 615.674 358.415 614.982 357.313L618.476 350.86L614.037 347.46L610.7 354.133L610.669 354.165C609.473 353.882 608.214 353.913 607.017 354.228V347.838L600.659 351.363V358.068C599.4 359.264 598.266 360.587 597.259 361.972L593.419 359.516L589.075 367.764L592.506 370.502L592.223 371.887C591.782 373.335 591.436 374.846 591.152 376.326L586.053 379.127V387.564L590.9 384.668C591.121 386.21 591.656 387.69 592.474 388.98L588.823 395.15L593.45 398.644L596.692 392.285H600.722V398.644L606.797 394.93V388.665C608.182 387.312 609.41 385.769 610.449 384.133L614.1 386.619L618.507 378.215L614.856 375.507L615.202 374.248C615.548 373.272 615.8 372.297 616.052 371.352Z" fill="#235789"/>
<path opacity="0.44" d="M606.744 374.123C607.704 371.68 607.328 369.246 605.904 368.686C604.48 368.127 602.548 369.654 601.588 372.097C600.627 374.54 601.004 376.974 602.427 377.534C603.851 378.093 605.784 376.566 606.744 374.123Z" fill="#053855"/>
<path opacity="0.44" d="M582.716 391.624L588.823 395.15L593.45 398.644L587.343 395.119L582.716 391.624Z" fill="#053855"/>
<path d="M594.521 347.806L600.627 351.332L606.986 347.806L600.879 344.281L594.521 347.806Z" fill="#235789"/>
<path opacity="0.44" d="M594.521 347.775L600.627 351.332L606.986 347.838L600.879 344.281L594.521 347.775Z" fill="#053855"/>
<path d="M579.914 375.57L586.053 379.096V387.532L579.914 384.007V375.57Z" fill="#235789"/>
<path opacity="0.44" d="M579.914 375.57L586.053 379.096V387.532L579.914 384.007V375.57Z" fill="#053855"/>
<defs>
<linearGradient id="paint0_linear_2312_2420" x1="53.19" y1="205.29" x2="760.79" y2="349.72" gradientUnits="userSpaceOnUse">
<stop stop-color="white" stop-opacity="0"/>
<stop offset="1" stop-color="white"/>
</linearGradient>
<linearGradient id="paint1_linear_2312_2420" x1="79.78" y1="158.33" x2="910.8" y2="141.52" gradientUnits="userSpaceOnUse">
<stop stop-color="#231F20" stop-opacity="0"/>
<stop offset="1" stop-color="#231F20"/>
</linearGradient>
<linearGradient id="paint2_linear_2312_2420" x1="349.76" y1="241.29" x2="205.52" y2="295.72" gradientUnits="userSpaceOnUse">
<stop stop-color="#231F20" stop-opacity="0"/>
<stop offset="1" stop-color="#231F20"/>
</linearGradient>
<linearGradient id="paint3_linear_2312_2420" x1="378.69" y1="204.91" x2="356.38" y2="395.55" gradientUnits="userSpaceOnUse">
<stop stop-color="#231F20" stop-opacity="0"/>
<stop offset="1" stop-color="#231F20"/>
</linearGradient>
<linearGradient id="paint4_linear_2312_2420" x1="339.53" y1="241.56" x2="414.77" y2="241.8" gradientUnits="userSpaceOnUse">
<stop stop-color="#231F20" stop-opacity="0"/>
<stop offset="1" stop-color="#231F20"/>
</linearGradient>
<linearGradient id="paint5_linear_2312_2420" x1="361.2" y1="202.86" x2="338.89" y2="393.5" gradientUnits="userSpaceOnUse">
<stop stop-color="#231F20" stop-opacity="0"/>
<stop offset="1" stop-color="#231F20"/>
</linearGradient>
<linearGradient id="paint6_linear_2312_2420" x1="363.76" y1="299.04" x2="388.36" y2="233.23" gradientUnits="userSpaceOnUse">
<stop stop-color="#231F20" stop-opacity="0"/>
<stop offset="1" stop-color="#231F20"/>
</linearGradient>
<linearGradient id="paint7_linear_2312_2420" x1="400.91" y1="293.02" x2="382.23" y2="227.9" gradientUnits="userSpaceOnUse">
<stop stop-color="#231F20" stop-opacity="0"/>
<stop offset="1" stop-color="#231F20"/>
</linearGradient>
<linearGradient id="paint8_linear_2312_2420" x1="392.11" y1="241.46" x2="298.85" y2="374.28" gradientUnits="userSpaceOnUse">
<stop stop-color="#231F20" stop-opacity="0"/>
<stop offset="1" stop-color="#231F20"/>
</linearGradient>
<linearGradient id="paint9_linear_2312_2420" x1="402.3" y1="248.62" x2="309.04" y2="381.44" gradientUnits="userSpaceOnUse">
<stop stop-color="#231F20" stop-opacity="0"/>
<stop offset="1" stop-color="#231F20"/>
</linearGradient>
<linearGradient id="paint10_linear_2312_2420" x1="443.459" y1="78.2384" x2="544.449" y2="215.718" gradientUnits="userSpaceOnUse">
<stop stop-opacity="0"/>
<stop offset="0.99"/>
</linearGradient>
<linearGradient id="paint11_linear_2312_2420" x1="430.319" y1="75.9884" x2="441.279" y2="75.9884" gradientUnits="userSpaceOnUse">
<stop offset="0.02" stop-color="white" stop-opacity="0"/>
<stop offset="0.58" stop-color="white" stop-opacity="0.39"/>
<stop offset="0.68" stop-color="white" stop-opacity="0.68"/>
<stop offset="1" stop-color="white"/>
</linearGradient>
<linearGradient id="paint12_linear_2312_2420" x1="395.139" y1="90.6784" x2="433.429" y2="90.6784" gradientUnits="userSpaceOnUse">
<stop offset="0.02" stop-color="white" stop-opacity="0"/>
<stop offset="0.58" stop-color="white" stop-opacity="0.39"/>
<stop offset="0.68" stop-color="white" stop-opacity="0.68"/>
<stop offset="1" stop-color="white"/>
</linearGradient>
<linearGradient id="paint13_linear_2312_2420" x1="471.299" y1="148.838" x2="414.579" y2="157.478" gradientUnits="userSpaceOnUse">
<stop stop-opacity="0"/>
<stop offset="0.99"/>
</linearGradient>
<linearGradient id="paint14_linear_2312_2420" x1="395.619" y1="85.6384" x2="421.129" y2="73.6584" gradientUnits="userSpaceOnUse">
<stop offset="0.02" stop-color="white" stop-opacity="0"/>
<stop offset="0.58" stop-color="white" stop-opacity="0.39"/>
<stop offset="0.68" stop-color="white" stop-opacity="0.68"/>
<stop offset="1" stop-color="white"/>
</linearGradient>
<linearGradient id="paint15_linear_2312_2420" x1="453.069" y1="196.668" x2="471.979" y2="196.668" gradientUnits="userSpaceOnUse">
<stop stop-opacity="0"/>
<stop offset="0.99"/>
</linearGradient>
<linearGradient id="paint16_linear_2312_2420" x1="475.249" y1="183.368" x2="494.159" y2="183.368" gradientUnits="userSpaceOnUse">
<stop stop-opacity="0"/>
<stop offset="0.99"/>
</linearGradient>
<linearGradient id="paint17_linear_2312_2420" x1="608.803" y1="271.989" x2="604.096" y2="406.819" gradientUnits="userSpaceOnUse">
<stop stop-color="white" stop-opacity="0"/>
<stop offset="1" stop-color="#3D73A6"/>
</linearGradient>
</defs>
</svg>
