<svg width="24" height="24" viewBox="0 0 24 24" fill="none" xmlns="http://www.w3.org/2000/svg">
<path d="M10.9875 15.0127H13.0125C13.1812 15.0127 13.3266 14.9494 13.4484 14.8228C13.5703 14.6962 13.6125 14.557 13.575 14.4051L13.0406 11.7468C13.4156 11.5781 13.7109 11.3333 13.9266 11.0127C14.1422 10.692 14.25 10.3376 14.25 9.94937C14.25 9.39241 14.0297 8.91561 13.5891 8.51899C13.1484 8.12236 12.6187 7.92405 12 7.92405C11.3813 7.92405 10.8516 8.12236 10.4109 8.51899C9.97031 8.91561 9.75 9.39241 9.75 9.94937C9.75 10.3376 9.85781 10.692 10.0734 11.0127C10.2891 11.3333 10.5844 11.5781 10.9594 11.7468L10.425 14.4051C10.3875 14.557 10.4297 14.6962 10.5516 14.8228C10.6734 14.9494 10.8187 15.0127 10.9875 15.0127ZM12 22C11.8688 22 11.7469 21.9916 11.6344 21.9747C11.5219 21.9578 11.4094 21.9325 11.2969 21.8987C8.76562 21.1392 6.75 19.7342 5.25 17.6835C3.75 15.6329 3 13.4262 3 11.0633V6.27848C3 5.85654 3.13594 5.47679 3.40781 5.13924C3.67969 4.80169 4.03125 4.55696 4.4625 4.40506L11.2125 2.12658C11.475 2.04219 11.7375 2 12 2C12.2625 2 12.525 2.04219 12.7875 2.12658L19.5375 4.40506C19.9688 4.55696 20.3203 4.80169 20.5922 5.13924C20.8641 5.47679 21 5.85654 21 6.27848V11.0633C21 13.4262 20.25 15.6329 18.75 17.6835C17.25 19.7342 15.2344 21.1392 12.7031 21.8987C12.5906 21.9325 12.4781 21.9578 12.3656 21.9747C12.2531 21.9916 12.1312 22 12 22ZM12 19.9747C13.95 19.4177 15.5625 18.3038 16.8375 16.6329C18.1125 14.962 18.75 13.1055 18.75 11.0633V6.27848L12 4L5.25 6.27848V11.0633C5.25 13.1055 5.8875 14.962 7.1625 16.6329C8.4375 18.3038 10.05 19.4177 12 19.9747Z" fill="#FFFFFF"/>
</svg>
