<svg width="42" height="40" viewBox="0 0 42 40" fill="none" xmlns="http://www.w3.org/2000/svg">
<g clip-path="url(#clip0_2385_47)">
<path d="M17.3919 27.0689C18.9528 28.5571 21.4865 28.5571 23.0473 27.0689L28.3987 21.9608C29.9595 20.4726 29.9595 18.0593 28.3987 16.5711L24.5879 12.9512C23.7973 12.2071 22.7838 11.8452 21.75 11.8452C20.7163 11.8452 19.7028 12.2071 18.9122 12.9512L13.5811 18.0392C12.0203 19.5274 12.0203 21.9407 13.5811 23.4289L17.3919 27.0689Z" fill="#235789"/>
<path d="M20.331 9.452C22.5202 9.00957 24.9121 9.57267 26.554 11.1212L30.2229 14.6003L33.4864 11.4832C34.1959 10.7994 34.1959 9.71344 33.4864 9.02968L26.1283 2.03119C23.3108 -0.663635 18.7297 -0.663635 15.8918 2.03119L15.4864 2.39318C14.777 3.07694 14.777 4.16291 15.4864 4.84667L20.331 9.452Z" fill="#235789"/>
<path d="M17.6756 10.5983L13.5608 6.6767C12.8513 5.99294 11.6959 5.99294 10.9865 6.6767L7.17565 10.2966C6.46619 10.9804 6.46619 12.0663 7.17565 12.7501L11.2702 16.6516C11.3919 16.4907 11.5135 16.3298 11.6554 16.189L17.0067 11.0809C17.2094 10.92 17.4527 10.7592 17.6756 10.5983Z" fill="#235789"/>
<path d="M10.1757 23.1071C9.6487 21.82 9.58789 20.4122 9.95276 19.0849L5.25006 14.6003C4.5406 13.9165 3.38519 13.9165 2.67573 14.6003L2.12843 15.1232C-0.689133 17.818 -0.689133 22.182 2.12843 24.8768L3.93249 26.5862C4.64195 27.27 5.79735 27.27 6.50681 26.5862L10.1757 23.1071Z" fill="#235789"/>
<path d="M39.8717 15.1232L37.9663 13.3132C37.2568 12.6295 36.1014 12.6295 35.3919 13.3132L31.7635 16.7723C32.1081 17.5566 32.2906 18.4012 32.2906 19.266C32.2906 19.7486 32.2095 20.2313 32.1081 20.6938L36.8919 25.2388C37.6014 25.9226 38.7568 25.9226 39.4663 25.2388L39.8514 24.8768C42.7095 22.182 42.7095 17.818 39.8717 15.1232Z" fill="#235789"/>
<path d="M21.973 30.5279C21.4055 30.6687 20.8176 30.7693 20.2298 30.7693C18.5068 30.7693 16.7838 30.1458 15.4663 28.899L11.7163 25.3193L8.45275 28.4364C7.74329 29.1202 7.74329 30.2062 8.45275 30.8899L15.8919 37.989C18.7095 40.6838 23.2906 40.6838 26.1284 37.989L26.6757 37.4661C27.3852 36.7823 27.3852 35.6963 26.6757 35.0126L21.973 30.5279Z" fill="#235789"/>
<path d="M34.9864 29.5425C35.6959 28.8588 35.6959 27.7728 34.9864 27.089L30.8716 23.1876C30.7094 23.3887 30.5472 23.6099 30.3445 23.811L24.9932 28.9191C24.8513 29.0599 24.6689 29.1604 24.527 29.2811L28.6216 33.1825C29.331 33.8663 30.4864 33.8663 31.1959 33.1825L34.9864 29.5425Z" fill="#235789"/>
</g>
<defs>
<clipPath id="clip0_2385_47">
<rect width="42" height="40" fill="white"/>
</clipPath>
</defs>
</svg>
