<svg width="24" height="24" viewBox="0 0 24 24" fill="none" xmlns="http://www.w3.org/2000/svg">
<path fill-rule="evenodd" clip-rule="evenodd" d="M11.6783 6.72107C12.7212 6.49985 13.8607 6.7814 14.6429 7.55568L16.3907 9.29529L17.9454 7.73668C18.2834 7.39479 18.2834 6.85179 17.9454 6.5099L14.4401 3.01058C13.0978 1.66314 10.9154 1.66314 9.56352 3.01058L9.37039 3.19158C9.03241 3.53347 9.03241 4.07647 9.37039 4.41836L11.6783 6.72107ZM10.2781 15.5297C11.0217 16.2738 12.2287 16.2738 12.9723 15.5297L15.5216 12.9756C16.2652 12.2315 16.2652 11.0249 15.5216 10.2807L13.7062 8.47075C13.3296 8.0987 12.8468 7.9177 12.3543 7.9177C11.8618 7.9177 11.379 8.0987 11.0024 8.47075L8.46268 11.0148C7.71913 11.7589 7.71913 12.9656 8.46268 13.7097L10.2781 15.5297ZM8.45306 5.3334L10.4133 7.29423C10.378 7.32102 10.3415 7.34781 10.3051 7.3746L10.305 7.37468C10.232 7.4283 10.1591 7.48193 10.0947 7.53556L7.54534 10.0897C7.47775 10.1601 7.41981 10.2405 7.36187 10.3209L5.41124 8.37017C5.07326 8.02828 5.07326 7.48529 5.41124 7.1434L7.22667 5.3334C7.56465 4.99151 8.11508 4.99151 8.45306 5.3334ZM6.84035 13.5487C6.58928 12.9052 6.56031 12.2013 6.73413 11.5376L4.49381 9.29526C4.15583 8.95337 3.6054 8.95337 3.26742 9.29526L3.0067 9.5567C1.66443 10.9041 1.66443 13.0862 3.0067 14.4336L3.86613 15.2884C4.20411 15.6302 4.75454 15.6302 5.09252 15.2884L6.84035 13.5487ZM20.0796 8.65171L20.9873 9.55671C22.3392 10.9042 22.3392 13.0862 20.9776 14.4336L20.7941 14.6146C20.4562 14.9565 19.9057 14.9565 19.5678 14.6146L17.2888 12.3421C17.3371 12.1108 17.3757 11.8695 17.3757 11.6282C17.3757 11.1958 17.2888 10.7734 17.1246 10.3813L18.8532 8.65171C19.1912 8.30983 19.7416 8.30983 20.0796 8.65171ZM12.4605 17.2593C12.1901 17.3297 11.9101 17.3799 11.63 17.3799C10.8092 17.3799 9.98841 17.0682 9.36073 16.4448L7.57426 14.6549L6.01956 16.2135C5.68158 16.5554 5.68158 17.0984 6.01956 17.4403L9.56352 20.9899C10.9058 22.3373 13.0882 22.3373 14.4401 20.9899L14.7008 20.7284C15.0388 20.3865 15.0388 19.8435 14.7008 19.5017L12.4605 17.2593ZM18.66 15.5398C18.998 15.8816 18.998 16.4246 18.66 16.7665L16.8543 18.5866C16.5163 18.9285 15.9659 18.9285 15.6279 18.5866L13.6772 16.6358C13.7053 16.6108 13.7366 16.5875 13.7685 16.5638C13.8136 16.5303 13.8598 16.496 13.8993 16.4548L16.4487 13.9007C16.524 13.8222 16.5876 13.7376 16.6487 13.6565C16.6658 13.6336 16.6828 13.6111 16.6997 13.589L18.66 15.5398Z" fill="#FFFFFF"/>
</svg>
