<svg width="24" height="24" viewBox="0 0 24 24" fill="none" xmlns="http://www.w3.org/2000/svg">
<path d="M3 20V17C3 16.45 3.19583 15.9792 3.5875 15.5875C3.97917 15.1958 4.45 15 5 15H6V13C6 12.45 6.19583 11.9792 6.5875 11.5875C6.97917 11.1958 7.45 11 8 11H11V9H10C9.45 9 8.97917 8.80417 8.5875 8.4125C8.19583 8.02083 8 7.55 8 7V4C8 3.45 8.19583 2.97917 8.5875 2.5875C8.97917 2.19583 9.45 2 10 2H14C14.55 2 15.0208 2.19583 15.4125 2.5875C15.8042 2.97917 16 3.45 16 4V7C16 7.55 15.8042 8.02083 15.4125 8.4125C15.0208 8.80417 14.55 9 14 9H13V11H16C16.55 11 17.0208 11.1958 17.4125 11.5875C17.8042 11.9792 18 12.45 18 13V15H19C19.55 15 20.0208 15.1958 20.4125 15.5875C20.8042 15.9792 21 16.45 21 17V20C21 20.55 20.8042 21.0208 20.4125 21.4125C20.0208 21.8042 19.55 22 19 22H15C14.45 22 13.9792 21.8042 13.5875 21.4125C13.1958 21.0208 13 20.55 13 20V17C13 16.45 13.1958 15.9792 13.5875 15.5875C13.9792 15.1958 14.45 15 15 15H16V13H8V15H9C9.55 15 10.0208 15.1958 10.4125 15.5875C10.8042 15.9792 11 16.45 11 17V20C11 20.55 10.8042 21.0208 10.4125 21.4125C10.0208 21.8042 9.55 22 9 22H5C4.45 22 3.97917 21.8042 3.5875 21.4125C3.19583 21.0208 3 20.55 3 20ZM10 7H14V4H10V7ZM5 20H9V17H5V20ZM15 20H19V17H15V20Z" fill="#FFFFFF"/>
</svg>
